<svg width="512" height="512" viewBox="0 0 512 512" fill="none" xmlns="http://www.w3.org/2000/svg">
<path d="M176 160H272V176H176V160ZM288 160H304V176H288V160ZM320 160H336V176H320V160ZM176 224H272V240H176V224ZM288 224H304V240H288V224ZM320 224H336V240H320V224ZM176 288H272V304H176V288ZM288 288H304V304H288V288ZM320 288H336V304H320V288Z" fill="black"/>
<path d="M464 344C456.908 344.009 450.019 346.37 444.411 350.713C438.804 355.056 434.796 361.135 433.013 368H344V336C350.363 335.993 356.463 333.462 360.962 328.962C365.462 324.463 367.993 318.363 368 312V288H416C427.052 287.992 437.983 285.694 448.103 281.251C458.223 276.807 467.312 270.316 474.798 262.184C482.284 254.053 488.004 244.459 491.597 234.007C495.19 223.555 496.578 212.472 495.674 201.456C494.77 190.441 491.593 179.733 486.344 170.006C481.095 160.28 473.888 151.747 465.176 144.945C456.465 138.143 446.439 133.22 435.73 130.486C425.021 127.752 413.862 127.267 402.956 129.061C395.13 99.5387 378.594 73.058 355.502 53.0689C332.41 33.0799 303.832 20.5094 273.493 16.9953C243.154 13.4812 212.46 19.1864 185.41 33.3675C158.36 47.5487 136.208 69.5483 121.841 96.5C118.571 96.1672 115.287 96.0003 112 96C86.5392 96 62.1212 106.114 44.1177 124.118C26.1143 142.121 16 166.539 16 192C16 217.461 26.1143 241.879 44.1177 259.882C62.1212 277.886 86.5392 288 112 288H144V312C144.007 318.363 146.538 324.463 151.038 328.962C155.537 333.462 161.637 335.993 168 336V368H78.987C77.0399 360.459 72.4092 353.886 65.9629 349.515C59.5167 345.144 51.6975 343.274 43.971 344.255C36.2445 345.236 29.1411 349.002 23.9924 354.846C18.8437 360.69 16.0031 368.211 16.0031 376C16.0031 383.789 18.8437 391.31 23.9924 397.154C29.1411 402.998 36.2445 406.764 43.971 407.745C51.6975 408.726 59.5167 406.856 65.9629 402.485C72.4092 398.114 77.0399 391.541 78.987 384H176C178.122 384 180.157 383.157 181.657 381.657C183.157 380.157 184 378.122 184 376V336H200V400H136C133.878 400 131.843 400.843 130.343 402.343C128.843 403.843 128 405.878 128 408V433.013C120.459 434.96 113.886 439.591 109.515 446.037C105.144 452.483 103.274 460.302 104.255 468.029C105.236 475.756 109.002 482.859 114.846 488.008C120.69 493.156 128.211 495.997 136 495.997C143.789 495.997 151.31 493.156 157.154 488.008C162.998 482.859 166.764 475.756 167.745 468.029C168.726 460.302 166.856 452.483 162.485 446.037C158.114 439.591 151.541 434.96 144 433.013V416H208C210.122 416 212.157 415.157 213.657 413.657C215.157 412.157 216 410.122 216 408V336H248V417.013C240.459 418.96 233.886 423.591 229.515 430.037C225.144 436.483 223.274 444.302 224.255 452.029C225.236 459.756 229.002 466.859 234.846 472.008C240.69 477.156 248.211 479.997 256 479.997C263.789 479.997 271.31 477.156 277.154 472.008C282.998 466.859 286.764 459.756 287.745 452.029C288.726 444.302 286.856 436.483 282.485 430.037C278.114 423.591 271.541 418.96 264 417.013V336H296V408C296 410.122 296.843 412.157 298.343 413.657C299.843 415.157 301.878 416 304 416H368V433.013C360.459 434.96 353.886 439.591 349.515 446.037C345.144 452.483 343.274 460.302 344.255 468.029C345.236 475.756 349.002 482.859 354.846 488.008C360.69 493.156 368.211 495.997 376 495.997C383.789 495.997 391.31 493.156 397.154 488.008C402.998 482.859 406.764 475.756 407.745 468.029C408.726 460.302 406.856 452.483 402.485 446.037C398.114 439.591 391.541 434.96 384 433.013V408C384 405.878 383.157 403.843 381.657 402.343C380.157 400.843 378.122 400 376 400H312V336H328V376C328 378.122 328.843 380.157 330.343 381.657C331.843 383.157 333.878 384 336 384H433.013C434.509 389.795 437.601 395.054 441.936 399.18C446.271 403.306 451.677 406.134 457.539 407.342C463.4 408.549 469.484 408.089 475.097 406.013C480.71 403.937 485.629 400.329 489.294 395.597C492.959 390.866 495.224 385.201 495.832 379.247C496.439 373.293 495.364 367.288 492.73 361.914C490.096 356.54 486.007 352.013 480.928 348.846C475.85 345.68 469.985 344.001 464 344ZM48 392C44.8355 392 41.7421 391.062 39.1109 389.304C36.4797 387.545 34.4289 385.047 33.2179 382.123C32.0069 379.199 31.6901 375.982 32.3074 372.879C32.9248 369.775 34.4487 366.924 36.6863 364.686C38.9239 362.449 41.7749 360.925 44.8786 360.307C47.9823 359.69 51.1993 360.007 54.1229 361.218C57.0466 362.429 59.5454 364.48 61.3035 367.111C63.0616 369.742 64 372.835 64 376C63.995 380.242 62.3076 384.309 59.3082 387.308C56.3087 390.308 52.2419 391.995 48 392ZM152 464C152 467.165 151.062 470.258 149.304 472.889C147.545 475.52 145.047 477.571 142.123 478.782C139.199 479.993 135.982 480.31 132.879 479.693C129.775 479.075 126.924 477.551 124.686 475.314C122.449 473.076 120.925 470.225 120.307 467.121C119.69 464.018 120.007 460.801 121.218 457.877C122.429 454.953 124.48 452.455 127.111 450.696C129.742 448.938 132.835 448 136 448C140.242 448.005 144.309 449.692 147.308 452.692C150.308 455.691 151.995 459.758 152 464ZM272 448C272 451.165 271.062 454.258 269.304 456.889C267.545 459.52 265.047 461.571 262.123 462.782C259.199 463.993 255.982 464.31 252.879 463.693C249.775 463.075 246.924 461.551 244.686 459.314C242.449 457.076 240.925 454.225 240.307 451.121C239.69 448.018 240.007 444.801 241.218 441.877C242.429 438.953 244.48 436.455 247.111 434.696C249.742 432.938 252.835 432 256 432C260.242 432.005 264.309 433.692 267.308 436.692C270.308 439.691 271.995 443.758 272 448ZM392 464C392 467.165 391.062 470.258 389.304 472.889C387.545 475.52 385.047 477.571 382.123 478.782C379.199 479.993 375.982 480.31 372.879 479.693C369.775 479.075 366.924 477.551 364.686 475.314C362.449 473.076 360.925 470.225 360.307 467.121C359.69 464.018 360.007 460.801 361.218 457.877C362.429 454.953 364.48 452.455 367.111 450.696C369.742 448.938 372.835 448 376 448C380.242 448.005 384.309 449.692 387.308 452.692C390.308 455.691 391.995 459.758 392 464ZM160 184V152C160.002 149.879 160.846 147.846 162.346 146.346C163.846 144.846 165.879 144.002 168 144H344C346.121 144.002 348.154 144.846 349.654 146.346C351.154 147.846 351.998 149.879 352 152V184C351.998 186.121 351.154 188.154 349.654 189.654C348.154 191.154 346.121 191.998 344 192H168C165.879 191.998 163.846 191.154 162.346 189.654C160.846 188.154 160.002 186.121 160 184ZM160 248V216C160.002 213.879 160.846 211.846 162.346 210.346C163.846 208.846 165.879 208.002 168 208H344C346.121 208.002 348.154 208.846 349.654 210.346C351.154 211.846 351.998 213.879 352 216V248C351.998 250.121 351.154 252.154 349.654 253.654C348.154 255.154 346.121 255.998 344 256H168C165.879 255.998 163.846 255.154 162.346 253.654C160.846 252.154 160.002 250.121 160 248ZM32 192C32.0241 170.79 40.4604 150.456 55.4581 135.458C70.4557 120.46 90.7901 112.024 112 112C116.388 111.999 120.769 112.355 125.1 113.064C126.802 113.346 128.549 113.07 130.081 112.277C131.613 111.484 132.848 110.216 133.6 108.664C145.988 83.1252 166.054 62.101 190.988 48.5366C215.922 34.9723 244.475 29.5471 272.646 33.0212C300.818 36.4952 327.197 48.6944 348.088 67.91C368.98 87.1255 383.338 112.395 389.15 140.178C389.372 141.249 389.812 142.263 390.442 143.157C391.072 144.051 391.878 144.807 392.812 145.377C393.745 145.948 394.785 146.32 395.869 146.473C396.952 146.625 398.055 146.554 399.109 146.263C407.909 143.859 417.121 143.363 426.128 144.81C435.135 146.257 443.728 149.613 451.333 154.652C458.937 159.691 465.376 166.298 470.218 174.029C475.06 181.761 478.193 190.438 479.408 199.479C480.622 208.52 479.89 217.717 477.26 226.452C474.63 235.187 470.163 243.259 464.158 250.126C458.154 256.994 450.75 262.498 442.444 266.271C434.139 270.043 425.122 271.997 416 272H366.624C365.576 269.049 363.96 266.331 361.869 264C365.82 259.608 368.004 253.908 368 248V216C368.004 210.092 365.82 204.392 361.869 200C365.82 195.608 368.004 189.908 368 184V152C367.993 145.637 365.462 139.537 360.962 135.038C356.463 130.538 350.363 128.007 344 128H168C161.637 128.007 155.537 130.538 151.038 135.038C146.538 139.537 144.007 145.637 144 152V184C143.996 189.908 146.18 195.608 150.131 200C146.18 204.392 143.996 210.092 144 216V248C143.996 253.908 146.18 259.608 150.131 264C148.04 266.331 146.424 269.049 145.376 272H112C90.7901 271.976 70.4557 263.54 55.4581 248.542C40.4604 233.544 32.0241 213.21 32 192ZM160 312V280C160.002 277.879 160.846 275.846 162.346 274.346C163.846 272.846 165.879 272.002 168 272H344C346.121 272.002 348.154 272.846 349.654 274.346C351.154 275.846 351.998 277.879 352 280V312C351.998 314.121 351.154 316.154 349.654 317.654C348.154 319.154 346.121 319.998 344 320H168C165.879 319.998 163.846 319.154 162.346 317.654C160.846 316.154 160.002 314.121 160 312ZM464 392C460.835 392 457.742 391.062 455.111 389.304C452.48 387.545 450.429 385.047 449.218 382.123C448.007 379.199 447.69 375.982 448.307 372.879C448.925 369.775 450.449 366.924 452.686 364.686C454.924 362.449 457.775 360.925 460.879 360.307C463.982 359.69 467.199 360.007 470.123 361.218C473.047 362.429 475.545 364.48 477.304 367.111C479.062 369.742 480 372.835 480 376C479.995 380.242 478.308 384.309 475.308 387.308C472.309 390.308 468.242 391.995 464 392Z" fill="black"/>
</svg>
