<svg width="24" height="24" viewBox="0 0 24 24" fill="none" xmlns="http://www.w3.org/2000/svg">
<rect width="24" height="24" fill="white"/>
<path d="M6.51717 15.3377V16.0531C6.51717 16.6081 6.96692 17.0577 7.52191 17.0577H16.4789C17.0339 17.0577 17.4837 16.6081 17.4837 16.0531V15.3377H22V19.7168C22 20.7388 21.1639 21.5749 20.1419 21.5749H3.85818C2.83619 21.5749 2 20.7388 2 19.7168V15.3377H6.51717ZM6.51635 9.52892V14.0452H2V9.52892H6.51635ZM20.1419 2C21.1639 2 22 2.83621 22 3.85899V8.23719H17.4837V7.52185C17.4837 6.96695 17.0339 6.51717 16.4789 6.51717H7.52108C6.9661 6.51717 6.51635 6.96695 6.51635 7.52185V8.23719H2V3.8582C2 2.83621 2.83619 2 3.85818 2H20.1419Z" fill="#EB4A49"/>
</svg>
